<svg xmlns="http://www.w3.org/2000/svg" xmlns:xlink="http://www.w3.org/1999/xlink" width="2000" height="2000" viewBox="0 0 2000 2000">
  <defs>
    <clipPath id="clip-_1">
      <rect width="2000" height="2000"/>
    </clipPath>
  </defs>
  <g id="_1" data-name="1" clip-path="url(#clip-_1)">
    <rect width="2000" height="2000" fill="#fff"/>
    <g id="Group_1" data-name="Group 1" transform="translate(-102.667 -125.667)">
      <g id="user-line" transform="translate(-130.333 386.068)">
        <path id="Path" d="M0,0H1480V1480H0Z" fill="none" fill-rule="evenodd"/>
        <path id="Shape" d="M4,1296c0-272.461,220.873-493.334,493.334-493.334S990.669,1023.542,990.669,1296H867.335c0-204.346-165.655-370-370-370s-370,165.655-370,370ZM497.334,741c-204.425,0-370-165.575-370-370S292.909,1,497.334,1s370,165.575,370,370S701.76,741,497.334,741Zm0-123.334C633.618,617.668,744,507.284,744,371S633.618,124.334,497.334,124.334,250.667,234.717,250.667,371,361.051,617.668,497.334,617.668Z" transform="translate(242.667 60.667)"/>
      </g>
      <g id="user-line-2" data-name="user-line" transform="translate(854.997 385.667)">
        <path id="Path-2" data-name="Path" d="M0,0H1480V1480H0Z" fill="none" fill-rule="evenodd"/>
        <path id="Shape-2" data-name="Shape" d="M4,1296c0-272.461,220.873-493.334,493.334-493.334S990.669,1023.542,990.669,1296H867.335c0-204.346-165.655-370-370-370s-370,165.655-370,370ZM497.334,741c-204.425,0-370-165.575-370-370S292.909,1,497.334,1s370,165.575,370,370S701.76,741,497.334,741Zm0-123.334C633.618,617.668,744,507.284,744,371S633.618,124.334,497.334,124.334,250.667,234.717,250.667,371,361.051,617.668,497.334,617.668Z" transform="translate(242.667 60.667)"/>
      </g>
    </g>
  </g>
</svg>
