<svg xmlns="http://www.w3.org/2000/svg" xmlns:xlink="http://www.w3.org/1999/xlink" width="2000" height="2000" viewBox="0 0 2000 2000">
  <defs>
    <clipPath id="clip-_15">
      <rect width="2000" height="2000"/>
    </clipPath>
  </defs>
  <g id="_15" data-name="15" clip-path="url(#clip-_15)">
    <rect width="2000" height="2000" fill="#fff"/>
    <g id="Group_21" data-name="Group 21" transform="translate(0 0)">
      <g id="Path_13" data-name="Path 13" transform="translate(746.102 1256.277)" fill="none">
        <path d="M247.021,427.43,494.043,0,247.021,208.164,0,0Z" stroke="none"/>
        <path d="M 247.0214233398438 407.4452209472656 L 456.7953491210938 44.46554946899414 L 253.4653472900391 215.8110046386719 L 247.0213470458984 221.2413635253906 L 240.5773468017578 215.8110046386719 L 37.24752807617188 44.46559143066406 L 247.0214233398438 407.4452209472656 M 247.0214233398438 427.4304504394531 L -5.231584964349167e-06 1.093401260732207e-05 L 247.0213470458984 208.1641540527344 L 494.0428466796875 1.093401260732207e-05 L 247.0214233398438 427.4304504394531 Z" stroke="none" fill="#000"/>
      </g>
      <g id="Path_14" data-name="Path 14" transform="translate(745.921 317)" fill="none">
        <path d="M247.021,0,494.043,427.43,247.021,219.266,0,427.43Z" stroke="none"/>
        <path d="M 247.0213775634766 19.9852294921875 L 37.24755859375 382.96484375 L 240.5773010253906 211.6194458007813 L 247.0213012695313 206.1890869140625 L 253.4653015136719 211.6194458007813 L 456.7952270507813 382.9649047851563 L 247.0213775634766 19.9852294921875 M 247.0213775634766 0 L 494.042724609375 427.4304504394531 L 247.0213012695313 219.2662963867188 L 3.0517578125e-05 427.4304504394531 L 247.0213775634766 0 Z" stroke="none" fill="#000"/>
      </g>
      <g id="Group_19" data-name="Group 19" transform="translate(1401.027 388.727) rotate(45)">
        <g id="Path_17" data-name="Path 17" transform="translate(0 0)" fill="none">
          <path d="M167.666,0,335.333,290.12,167.666,148.828,0,290.12Z" stroke="none"/>
          <path d="M 167.6664733886719 19.98516845703125 L 37.24752807617188 245.6539916992188 L 161.2224273681641 141.1807098388672 L 167.6664276123047 135.7503967285156 L 174.1104278564453 141.1807098388672 L 298.08544921875 245.6540374755859 L 167.6664733886719 19.98516845703125 M 167.6664733886719 -3.0517578125e-05 L 335.3329467773438 290.1195983886719 L 167.6664276123047 148.8276062011719 L 0 290.1195983886719 L 167.6664733886719 -3.0517578125e-05 Z" stroke="none" fill="#000"/>
        </g>
        <g id="Path_18" data-name="Path 18" transform="translate(0 1198.941)" fill="none">
          <path d="M167.666,290.12,335.333,0,167.666,141.292,0,0Z" stroke="none"/>
          <path d="M 167.6663970947266 270.134521484375 L 298.0853881835938 44.46554946899414 L 174.1103515625 148.9389190673828 L 167.6663513183594 154.3692321777344 L 161.2223510742188 148.9389190673828 L 37.24748229980469 44.46560287475586 L 167.6663970947266 270.134521484375 M 167.6663970947266 290.1196594238281 L 2.867367402359378e-05 2.4979441150208e-05 L 167.6663513183594 141.2920227050781 L 335.3328247070313 2.4979441150208e-05 L 167.6663970947266 290.1196594238281 Z" stroke="none" fill="#000"/>
        </g>
      </g>
      <g id="Group_20" data-name="Group 20" transform="translate(347.922 625.843) rotate(-45)">
        <g id="Path_17-2" data-name="Path 17" fill="none">
          <path d="M167.666,0,335.333,290.12,167.666,148.828,0,290.12Z" stroke="none"/>
          <path d="M 167.6664733886719 19.98516845703125 L 37.24752807617188 245.6539916992188 L 161.2224273681641 141.1807098388672 L 167.6664276123047 135.7503967285156 L 174.1104278564453 141.1807098388672 L 298.08544921875 245.6540374755859 L 167.6664733886719 19.98516845703125 M 167.6664733886719 -3.0517578125e-05 L 335.3329467773438 290.1195983886719 L 167.6664276123047 148.8276062011719 L 0 290.1195983886719 L 167.6664733886719 -3.0517578125e-05 Z" stroke="none" fill="#000"/>
        </g>
        <g id="Path_18-2" data-name="Path 18" transform="translate(0 1198.941)" fill="none">
          <path d="M167.666,290.12,335.333,0,167.666,141.292,0,0Z" stroke="none"/>
          <path d="M 167.6663970947266 270.134521484375 L 298.0853881835938 44.46554946899414 L 174.1103515625 148.9389190673828 L 167.6663513183594 154.3692321777344 L 161.2223510742188 148.9389190673828 L 37.24748229980469 44.46560287475586 L 167.6663970947266 270.134521484375 M 167.6663970947266 290.1196594238281 L 2.867367402359378e-05 2.4979441150208e-05 L 167.6663513183594 141.2920227050781 L 335.3328247070313 2.4979441150208e-05 L 167.6663970947266 290.1196594238281 Z" stroke="none" fill="#000"/>
        </g>
      </g>
      <g id="Path_15" data-name="Path 15" transform="translate(1684.311 757.254) rotate(90)" fill="none">
        <path d="M247.021,0,494.043,427.43,247.021,219.266,0,427.43Z" stroke="none"/>
        <path d="M 247.0213775634766 19.9852294921875 L 37.24755859375 382.96484375 L 240.5773010253906 211.6194458007813 L 247.0213012695313 206.1890869140625 L 253.4653015136719 211.6194458007813 L 456.7952270507813 382.9649047851563 L 247.0213775634766 19.9852294921875 M 247.0213775634766 0 L 494.042724609375 427.4304504394531 L 247.0213012695313 219.2662963867188 L 3.0517578125e-05 427.4304504394531 L 247.0213775634766 0 Z" stroke="none" fill="#000"/>
      </g>
      <g id="Path_16" data-name="Path 16" transform="translate(743.431 757.254) rotate(90)" fill="none">
        <path d="M247.022,427.43,494.043,0,247.022,208.164,0,0Z" stroke="none"/>
        <path d="M 247.0215759277344 407.4452209472656 L 456.7956237792969 44.46553421020508 L 253.4654998779297 215.8110046386719 L 247.0214996337891 221.2413635253906 L 240.5774993896484 215.8110046386719 L 37.2475471496582 44.465576171875 L 247.0215759277344 407.4452209472656 M 247.0215759277344 427.4304504394531 L 4.499162969295867e-06 1.093401260732207e-05 L 247.0214996337891 208.1641540527344 L 494.0431518554688 1.093401260732207e-05 L 247.0215759277344 427.4304504394531 Z" stroke="none" fill="#000"/>
      </g>
    </g>
    <text id="N" transform="translate(947 238)" font-size="150" font-family="Roboto-Medium, Roboto" font-weight="500"><tspan x="0" y="0">N</tspan></text>
    <text id="S" transform="translate(955 1868)" font-size="150" font-family="Roboto-Medium, Roboto" font-weight="500"><tspan x="0" y="0">S</tspan></text>
    <text id="W" transform="translate(112 1053)" font-size="150" font-family="Roboto-Medium, Roboto" font-weight="500"><tspan x="0" y="0">W</tspan></text>
    <text id="O" transform="translate(1756 1053)" font-size="150" font-family="Roboto-Medium, Roboto" font-weight="500"><tspan x="0" y="0">O</tspan></text>
  </g>
</svg>
