<svg xmlns="http://www.w3.org/2000/svg" xmlns:xlink="http://www.w3.org/1999/xlink" width="2000" height="2000" viewBox="0 0 2000 2000">
  <defs>
    <clipPath id="clip-_3">
      <rect width="2000" height="2000"/>
    </clipPath>
  </defs>
  <g id="_3" data-name="3" clip-path="url(#clip-_3)">
    <rect width="2000" height="2000" fill="#fff"/>
    <g id="Group_5" data-name="Group 5" transform="translate(-12 0.831)">
      <g id="Group_3" data-name="Group 3" transform="translate(338.502 -480)">
        <g id="user-line" transform="translate(-142.502 510.169)">
          <path id="Path" d="M0,0H980.416V980.416H0Z" fill="none" fill-rule="evenodd"/>
          <path id="Shape" d="M4,858.864c0-180.49,146.316-326.805,326.805-326.805S657.611,678.375,657.611,858.864h-81.7c0-135.367-109.737-245.1-245.1-245.1S85.7,723.5,85.7,858.864ZM330.805,491.208c-135.42,0-245.1-109.684-245.1-245.1S195.385,1,330.805,1s245.1,109.684,245.1,245.1S466.225,491.208,330.805,491.208Zm0-81.7A163.4,163.4,0,1,0,167.4,246.1,163.358,163.358,0,0,0,330.805,409.507Z" transform="translate(159.403 39.851)"/>
        </g>
        <g id="user-line-2" data-name="user-line" transform="translate(510.041 510.169)">
          <path id="Path-2" data-name="Path" d="M0,0H980.416V980.416H0Z" fill="none" fill-rule="evenodd"/>
          <path id="Shape-2" data-name="Shape" d="M4,858.864c0-180.49,146.316-326.805,326.805-326.805S657.611,678.375,657.611,858.864h-81.7c0-135.367-109.737-245.1-245.1-245.1S85.7,723.5,85.7,858.864ZM330.805,491.208c-135.42,0-245.1-109.684-245.1-245.1S195.385,1,330.805,1s245.1,109.684,245.1,245.1S466.225,491.208,330.805,491.208Zm0-81.7A163.4,163.4,0,1,0,167.4,246.1,163.358,163.358,0,0,0,330.805,409.507Z" transform="translate(159.403 39.851)"/>
        </g>
      </g>
      <g id="Group_4" data-name="Group 4" transform="translate(338.502 478)">
        <g id="user-line-3" data-name="user-line" transform="translate(-142.502 510.169)">
          <path id="Path-3" data-name="Path" d="M0,0H980.416V980.416H0Z" fill="none" fill-rule="evenodd"/>
          <path id="Shape-3" data-name="Shape" d="M4,858.864c0-180.49,146.316-326.805,326.805-326.805S657.611,678.375,657.611,858.864h-81.7c0-135.367-109.737-245.1-245.1-245.1S85.7,723.5,85.7,858.864ZM330.805,491.208c-135.42,0-245.1-109.684-245.1-245.1S195.385,1,330.805,1s245.1,109.684,245.1,245.1S466.225,491.208,330.805,491.208Zm0-81.7A163.4,163.4,0,1,0,167.4,246.1,163.358,163.358,0,0,0,330.805,409.507Z" transform="translate(159.403 39.851)"/>
        </g>
        <g id="user-line-4" data-name="user-line" transform="translate(510.041 510.169)">
          <path id="Path-4" data-name="Path" d="M0,0H980.416V980.416H0Z" fill="none" fill-rule="evenodd"/>
          <path id="Shape-4" data-name="Shape" d="M4,858.864c0-180.49,146.316-326.805,326.805-326.805S657.611,678.375,657.611,858.864h-81.7c0-135.367-109.737-245.1-245.1-245.1S85.7,723.5,85.7,858.864ZM330.805,491.208c-135.42,0-245.1-109.684-245.1-245.1S195.385,1,330.805,1s245.1,109.684,245.1,245.1S466.225,491.208,330.805,491.208Zm0-81.7A163.4,163.4,0,1,0,167.4,246.1,163.358,163.358,0,0,0,330.805,409.507Z" transform="translate(159.403 39.851)"/>
        </g>
      </g>
    </g>
  </g>
</svg>
