<svg xmlns="http://www.w3.org/2000/svg" xmlns:xlink="http://www.w3.org/1999/xlink" width="2000" height="2000" viewBox="0 0 2000 2000">
  <defs>
    <clipPath id="clip-_7">
      <rect width="2000" height="2000"/>
    </clipPath>
  </defs>
  <g id="_7" data-name="7" clip-path="url(#clip-_7)">
    <rect width="2000" height="2000" fill="#fff"/>
    <path id="Path_1" data-name="Path 1" d="M24,2396H1200l296,732H-288Z" transform="translate(369 -2177)" fill="none" stroke="#000" stroke-width="40"/>
    <path id="Path_2" data-name="Path 2" d="M-84,3144v692H1344V3144" transform="translate(369 -2177)" fill="none" stroke="#000" stroke-width="40"/>
    <path id="Path_4" data-name="Path 4" d="M788,3836V3340h338v496" transform="translate(369 -2177)" fill="none" stroke="#000" stroke-width="40"/>
    <g id="Rectangle_3" data-name="Rectangle 3" transform="translate(469 1143)" fill="#fff" stroke="#000" stroke-width="40">
      <rect width="504" height="312" stroke="none"/>
      <rect x="20" y="20" width="464" height="272" fill="none"/>
    </g>
    <line id="Line_1" data-name="Line 1" y2="269" transform="translate(721.5 1161.5)" fill="none" stroke="#000" stroke-width="40"/>
    <path id="Path_5" data-name="Path 5" d="M0,0H244V236H-90Z" transform="translate(452 309)"/>
    <path id="Path_6" data-name="Path 6" d="M.293,0H349V272H-105Z" transform="translate(347 585)"/>
    <g id="Group_7" data-name="Group 7" transform="translate(579)">
      <path id="Path_8" data-name="Path 8" d="M154,0H-90V236H244Z" transform="translate(775 309)"/>
    </g>
    <rect id="Rectangle_7" data-name="Rectangle 7" width="488" height="236" transform="translate(736 309)"/>
    <rect id="Rectangle_8" data-name="Rectangle 8" width="488" height="272" transform="translate(736 585)"/>
  </g>
</svg>
