<svg xmlns="http://www.w3.org/2000/svg" xmlns:xlink="http://www.w3.org/1999/xlink" width="2000" height="2000" viewBox="0 0 2000 2000">
  <defs>
    <clipPath id="clip-_9">
      <rect width="2000" height="2000"/>
    </clipPath>
  </defs>
  <g id="_9" data-name="9" clip-path="url(#clip-_9)">
    <rect width="2000" height="2000" fill="#fff"/>
    <g id="Group_9" data-name="Group 9" transform="translate(26.5 -248.667)">
      <path id="Path_1" data-name="Path 1" d="M604,2836h0l892,292H-288Z" transform="translate(369.5 -2177)" fill="none" stroke="#000" stroke-width="40"/>
      <path id="Path_2" data-name="Path 2" d="M-84,3144v962H1344V3144" transform="translate(343.5 -2177)" fill="none" stroke="#000" stroke-width="40"/>
      <path id="Path_4" data-name="Path 4" d="M788,4026V3340h368v686" transform="translate(359 -2107)" fill="none" stroke="#000" stroke-width="40"/>
      <g id="Group_8" data-name="Group 8" transform="translate(-18 70)">
        <g id="Path_9" data-name="Path 9" transform="translate(469 1143)" fill="#fff">
          <path d="M 524 372 L -20 372 L -20 20 L 524 20 L 524 372 Z" stroke="none"/>
          <path d="M 0 40 L 0 352 L 504 352 L 504 40 L 0 40 M -40 0 L 544 0 L 544 392 L -40 392 L -40 0 Z" stroke="none" fill="#000"/>
        </g>
        <path id="Path_10" data-name="Path 10" d="M0,0V339" transform="translate(721.5 1161.5)" fill="none" stroke="#000" stroke-width="40"/>
      </g>
    </g>
    <path id="Path_11" data-name="Path 11" d="M0,0H232V210.333L0,142.405Z" transform="translate(1251 355.667)"/>
  </g>
</svg>
